<svg width="24" height="24" viewBox="0 0 24 24" fill="none" xmlns="http://www.w3.org/2000/svg">
<g id="iwwa:delete">
<path id="Vector" d="M12.8995 11.9964L19.6531 5.23619C19.7723 5.11646 19.8391 4.95438 19.839 4.78547C19.8389 4.61656 19.7719 4.45457 19.6525 4.33499C19.4137 4.09739 18.9931 4.09619 18.7519 4.33619L12.0001 11.0964L5.24595 4.33439C5.00595 4.09739 4.58535 4.09859 4.34655 4.33559C4.28727 4.39463 4.24035 4.46488 4.20852 4.54224C4.17669 4.61961 4.16058 4.70254 4.16115 4.78619C4.16115 4.95659 4.22715 5.11619 4.34655 5.23439L11.1001 11.9958L4.34715 18.7578C4.22798 18.8777 4.16124 19.04 4.16158 19.2091C4.16192 19.3781 4.2293 19.5402 4.34895 19.6596C4.46475 19.7742 4.62855 19.8402 4.79775 19.8402H4.80135C4.97115 19.8396 5.13495 19.773 5.24835 19.6572L12.0001 12.897L18.7543 19.659C18.8737 19.7778 19.0333 19.8438 19.2025 19.8438C19.2862 19.844 19.3691 19.8277 19.4464 19.7958C19.5238 19.7639 19.5941 19.717 19.6532 19.6579C19.7124 19.5987 19.7593 19.5284 19.7912 19.4511C19.8231 19.3737 19.8394 19.2909 19.8391 19.2072C19.8391 19.0374 19.7731 18.8772 19.6531 18.759L12.8995 11.9964Z" fill="white"/>
</g>
</svg>
