<svg version="1.1" xmlns="http://www.w3.org/2000/svg" xmlns:xlink="http://www.w3.org/1999/xlink" width="24" height="24" viewBox="0,0,256,256"><g fill="none" fill-rule="evenodd" stroke="#ffffff" stroke-width="1.5" stroke-linecap="round" stroke-linejoin="round" stroke-miterlimit="10" stroke-dasharray="" stroke-dashoffset="0" font-family="none" font-weight="none" font-size="none" text-anchor="none" style="mix-blend-mode: normal"><g transform="translate(0.00039,-5.3336) scale(10.66667,10.66667)"><g id="Group"><path d="M19.4939,6.51134v0c1.0106,1.01563 1.5547,2.40491 1.5026,3.83666c-0.0522,1.4318 -0.6958,2.7779 -1.7776,3.7173l-6.5653,5.6907c-0.375,0.3254 -0.9323,0.3254 -1.3073,0l-6.56536,-5.6906c-1.08174,-0.9395 -1.72539,-2.2855 -1.77751,-3.7173c-0.05213,-1.43182 0.49194,-2.8211 1.50251,-3.83673v0c1.90191,-1.91172 4.95949,-2.02383 6.99626,-0.25653l0.4977,0.4314l0.4978,-0.43143c2.0368,-1.76728 5.0943,-1.65516 6.9962,0.25653z" id="Path"></path></g></g></g></svg>