<svg version="1.1" xmlns="http://www.w3.org/2000/svg" xmlns:xlink="http://www.w3.org/1999/xlink" width="24" height="24" viewBox="0,0,256,256"><g fill="none" fill-rule="nonzero" stroke="#ffffff" stroke-width="1.5" stroke-linecap="round" stroke-linejoin="round" stroke-miterlimit="10" stroke-dasharray="" stroke-dashoffset="0" font-family="none" font-weight="none" font-size="none" text-anchor="none" style="mix-blend-mode: normal"><g transform="translate(-5.3344,-5.33384) scale(10.66667,10.66667)"><g id="Group"><path d="M15.0618,18.4421c0.586,0.586 0.586,1.536 0,2.1219c-0.5859,0.5859 -1.5359,0.5859 -2.1219,0c-0.5859,-0.5859 -0.5859,-1.5359 0,-2.1219c0.2813,-0.2815 0.663,-0.4397 1.061,-0.4397c0.398,0 0.7796,0.1582 1.0609,0.4397" id="Path"></path><path d="M20.564,17.4418c0.586,0.5859 0.586,1.5359 0,2.1218c-0.5859,0.586 -1.5359,0.586 -2.1219,0c-0.5859,-0.5859 -0.5859,-1.5359 0,-2.1218c0.2813,-0.2816 0.663,-0.4397 1.061,-0.4397c0.398,0 0.7796,0.1581 1.0609,0.4397" id="Path_2"></path><path d="M15.501,19.3725v-4.4707c-0.0003,-0.4091 0.2491,-0.777 0.6292,-0.9284l3.5015,-1.4005c0.3081,-0.1234 0.6573,-0.0858 0.9322,0.1002c0.2748,0.186 0.4394,0.4963 0.4394,0.8282v4.8515" id="Path_3"></path><path d="M20.0033,3.99667h-15.89661" id="Path_4"></path><path d="M20.0034,7.99838h-16.0067" id="Path_5"></path><path d="M12,12h-7.89331" id="Path_6"></path><path d="M8.99869,12h-4.96768" id="Path_7"></path><path d="M8.99879,16.0017h-5.00209" id="Path_8"></path></g></g></g></svg>