<svg width="24" height="24" viewBox="0 0 24 24" fill="none" xmlns="http://www.w3.org/2000/svg">
<g id="Group">
<g id="Group_2">
<path id="Path" fill-rule="evenodd" clip-rule="evenodd" d="M18.9569 21.0037H5.04307C3.93761 21.0037 3.04224 20.1083 3.04224 19.0028V10.9995C3.04224 9.89403 3.93761 8.99866 5.04307 8.99866H18.9569C20.0623 8.99866 20.9577 9.89403 20.9577 10.9995V19.0028C20.9577 20.1083 20.0613 21.0037 18.9569 21.0037Z" stroke="#818385" stroke-width="1.5" stroke-linecap="round" stroke-linejoin="round"/>
<path id="Path_2" d="M11.9889 15.4404C12.5752 16.0266 12.5752 16.977 11.9889 17.5623C11.4027 18.1475 10.4523 18.1485 9.86705 17.5623C9.28081 16.976 9.28081 16.0256 9.86705 15.4404C10.4533 14.8552 11.4027 14.8552 11.9889 15.4404" stroke="#818385" stroke-width="1.5" stroke-linecap="round" stroke-linejoin="round"/>
<path id="Path_3" d="M14.382 12.7943L12.4292 12.1431V16.5019" stroke="#818385" stroke-width="1.5" stroke-linecap="round" stroke-linejoin="round"/>
<path id="Path_4" d="M4.77893 8.99869V7.99827C4.77893 6.89281 5.6743 5.99744 6.77976 5.99744H17.2191C18.3246 5.99744 19.2199 6.89281 19.2199 7.99827V8.99869" stroke="#818385" stroke-width="1.5" stroke-linecap="round" stroke-linejoin="round"/>
<path id="Path_5" d="M6.51367 5.99747V4.99705C6.51367 3.89159 7.40904 2.99622 8.51451 2.99622H15.4864C16.5919 2.99622 17.4872 3.89159 17.4872 4.99705V5.99747" stroke="#818385" stroke-width="1.5" stroke-linecap="round" stroke-linejoin="round"/>
</g>
</g>
</svg>
