<svg version="1.1" xmlns="http://www.w3.org/2000/svg" xmlns:xlink="http://www.w3.org/1999/xlink" width="24" height="24" viewBox="0,0,256,256"><g fill="none" fill-rule="none" stroke="#ffffff" stroke-width="1.5" stroke-linecap="round" stroke-linejoin="round" stroke-miterlimit="10" stroke-dasharray="" stroke-dashoffset="0" font-family="none" font-weight="none" font-size="none" text-anchor="none" style="mix-blend-mode: normal"><g transform="translate(0.00032,0.00043) scale(10.66667,10.66667)"><g id="Group"><g id="Group_2"><path d="M18.9569,21.0037h-13.91383c-1.10546,0 -2.00083,-0.8954 -2.00083,-2.0009v-8.0033c0,-1.10547 0.89537,-2.00084 2.00083,-2.00084h13.91383c1.1054,0 2.0008,0.89537 2.0008,2.00084v8.0033c0,1.1055 -0.8964,2.0009 -2.0008,2.0009z" id="Path" fill-rule="evenodd"></path><path d="M11.9889,15.4404c0.5863,0.5862 0.5863,1.5366 0,2.1219c-0.5862,0.5852 -1.5366,0.5862 -2.12185,0c-0.58624,-0.5863 -0.58624,-1.5367 0,-2.1219c0.58625,-0.5852 1.53565,-0.5852 2.12185,0" id="Path_2" fill-rule="nonzero"></path><path d="M14.382,12.7943l-1.9528,-0.6512v4.3588" id="Path_3" fill-rule="nonzero"></path><path d="M4.77893,8.99869v-1.00042c0,-1.10546 0.89537,-2.00083 2.00083,-2.00083h10.43934c1.1055,0 2.0008,0.89537 2.0008,2.00083v1.00042" id="Path_4" fill-rule="nonzero"></path><path d="M6.51367,5.99747v-1.00042c0,-1.10546 0.89537,-2.00083 2.00084,-2.00083h6.97189c1.1055,0 2.0008,0.89537 2.0008,2.00083v1.00042" id="Path_5" fill-rule="nonzero"></path></g></g></g></g></svg>