<svg width="24" height="24" viewBox="0 0 24 24" fill="none" xmlns="http://www.w3.org/2000/svg">
<g id="material-symbols-light:lock-reset-sharp">
<path id="Vector" d="M12.9998 20C11.9718 20 10.9874 19.8093 10.0468 19.428C9.1061 19.0467 8.25943 18.5133 7.50677 17.828L8.24077 17.116C8.89943 17.7067 9.62277 18.1683 10.4108 18.501C11.1988 18.8337 12.0618 19 12.9998 19C14.9464 19 16.5998 18.32 17.9598 16.96C19.3198 15.6 19.9998 13.9467 19.9998 12C19.9998 10.0667 19.3164 8.41667 17.9498 7.05C16.5831 5.68333 14.9331 5 12.9998 5C11.0664 5 9.41643 5.68333 8.04977 7.05C6.6831 8.41667 5.99977 10.0667 5.99977 12V13.387L8.15177 11.234L8.86577 11.923L5.49977 15.288L2.13477 11.923L2.84777 11.235L4.99977 13.412V12C4.99977 10.8907 5.20843 9.85133 5.62577 8.882C6.0431 7.91267 6.61443 7.06533 7.33977 6.34C8.0651 5.61467 8.91243 5.04333 9.88177 4.626C10.8511 4.20867 11.8904 4 12.9998 4C14.1091 4 15.1484 4.20867 16.1178 4.626C17.0871 5.04333 17.9348 5.61467 18.6608 6.34C19.3868 7.06533 19.9578 7.91267 20.3738 8.882C20.7898 9.85133 20.9984 10.8907 20.9998 12C20.9998 14.218 20.2211 16.106 18.6638 17.664C17.1064 19.222 15.2184 20.0007 12.9998 20ZM10.1158 15.77V11H11.1158V9.885C11.1158 9.36033 11.2988 8.915 11.6648 8.549C12.0308 8.183 12.4758 8 12.9998 8C13.5238 8 13.9691 8.183 14.3358 8.549C14.7024 8.915 14.8851 9.36033 14.8838 9.885V11H15.8838V15.77H10.1158ZM11.8848 11H14.1148V9.885C14.1148 9.57567 14.0064 9.31233 13.7898 9.095C13.5731 8.87767 13.3098 8.76933 12.9998 8.77C12.6898 8.77067 12.4264 8.87933 12.2098 9.096C11.9931 9.31267 11.8844 9.576 11.8838 9.886L11.8848 11Z" fill="white"/>
</g>
</svg>
